<svg xmlns="http://www.w3.org/2000/svg" width="1278.763" height="662.397" viewBox="0 0 1278.763 662.397">
    <g id="logo" transform="translate(-0.657 -0.603)">
        <g id="_21409aff" data-name="#21409aff">
            <path id="Path_11" data-name="Path 11" d="M330.4,1.49a224.732,224.732,0,0,1,50.53,1.19,174.626,174.626,0,0,1,47.95,12.59c11.15,5.5,22.33,11.8,30.26,21.63a41.649,41.649,0,0,1,9.01,35.23c-3.09,14.37-12.22,27.73-25.32,34.68-15.23,6.36-32.92,8.9-48.72,3.07-16.79-5.49-27.98-20.64-34.77-36.24-6.56-10.31-18.01-16.52-29.76-18.96-29.46-5.15-61.48-.66-86.53,16.36a101.5,101.5,0,0,0-35.93,45.08c-4.71,11.57-6.48,24.88-2.22,36.86a55.871,55.871,0,0,0,11.88,20.27c15.49,17.64,36.95,28.09,56.38,40.62,28.92,18.88,56.54,40.98,76.48,69.52a131.437,131.437,0,0,1,17.65,36.46c2,5.57,2.23,11.55,3.71,17.26,3.78,22.47.78,45.79-6.87,67.14-3.15,6.83-5.44,14.07-9.31,20.57-8.53,16.1-19.66,30.69-31.94,44.1-26.95,28.15-58.97,51.9-94.99,67.07-36.65,15.52-78.07,19.86-117,11.27C98.57,545.32,86.8,541,75.16,536.65c-17.41-7.97-33.97-18.6-46.54-33.23A115.445,115.445,0,0,1,5.21,463.01C3.37,455.06.93,447.15.7,438.93c.01-8.59-.48-17.28,1.6-25.7,2.15-12.01,7.78-23.15,15.28-32.69,13.41-15.96,33.71-24.98,54.21-27.06a93,93,0,0,1,42.63,4.04c13.85,4.26,27.49,12.5,34.47,25.64,4.3,7.48,5.55,16.3,5.32,24.81-.48,4.69-.46,9.57-2.38,13.97-3.26,7.69-6.15,15.54-9.94,22.99-3.79,7.77-5.87,16.69-3.99,25.27,2.58,9.42,9.78,17.21,18.5,21.41,11.64,5.69,24.9,6.73,37.66,5.98,24.06-2.53,48.42-12.42,64-31.55,8.16-9.39,13.2-21,17.08-32.69,1.75-8.71,3.2-17.77,1.26-26.57-1.13-8.7-5.43-16.63-10.6-23.58-8.08-10.01-19.21-17.07-30.94-22.08-29.5-11.05-58.84-23.77-84.14-42.86-17.05-12.88-32.16-28.82-42.17-47.83-4.54-9.83-9.1-19.91-10.3-30.79-2.31-10.24-2.13-20.78-1.73-31.2,1.34-11.05,2.37-22.18,5.02-33.02,1.96-8.05,4.39-15.98,6.94-23.86a203.4,203.4,0,0,1,54.04-82.02c21.1-19.49,46.1-34.49,72.62-45.34,8.76-3.14,17.35-6.77,26.26-9.52,15.07-3.65,29.93-8.59,45.41-10.26C314.56,2.66,322.51,2.18,330.4,1.49Z" fill="#21409a"></path>
            <path id="Path_12" data-name="Path 12" d="M1200.68,111.69c13.25-5.62,28.1-6.85,42.28-5.01,8.66.92,17.24,3.85,24.06,9.38,8.62,6.33,12.86,17.41,12.36,27.9-.03,17.8-12.62,33.99-28.78,40.64-10.93,5.12-23.82,4.96-35.04.86-6.17-2.29-11.22-6.61-16.25-10.69-4.38-2.32-9.56-.85-14.03.4-14.42,4.52-27.39,12.69-39.27,21.87-7.19,6.09-14.85,12.63-18.16,21.74-2.25,9.65-3.1,19.54-4.95,29.27-4.49,24.26-8,48.61-12.18,72.92-1.54,9.05-2.5,18.92-8.42,26.35a20.6,20.6,0,0,1-13.49,8.22c-16.61.55-33.24.97-49.85,1.71-3.19.21-7.23-1.55-7.27-5.23-.86-10.84,3.36-21.22,4.2-31.93-8.08,8.31-16.61,16.39-26.78,22.12-14.22,8.73-30.56,13.34-46.93,15.91-7.33,1.2-14.8.94-22.13,2-24.55,1.9-49.56-7.87-66.63-25.55-15.92-16.3-23.74-39.05-25.02-61.48a168.326,168.326,0,0,1,5.04-49.68,152.3,152.3,0,0,1,24.22-54.8c14.56-20.29,34.58-37.2,58.21-45.79,15.73-6.42,33.22-7.94,49.96-5.39,12.55,2.57,24.85,8.62,32.93,18.82,9.92,12.38,13.1,29.12,11.04,44.61-3.53,29.94-21.75,58.15-48.48,72.46-19.27,10.42-41.41,14.47-63.17,13.97.71,19.13,9.07,39.35,25.88,49.71,10.92,6.69,24.44,8.69,36.98,6.63,3.15-.84,6.33-1.55,9.5-2.35,21.62-8.29,38.91-25.06,51.82-43.9a7.11,7.11,0,0,0,1.79-3.47c2.04-12.77,5-25.39,6.65-38.23,3.39-19.93,7.42-39.75,10.29-59.76,2.43-13.63,5.15-27.22,7.25-40.9,1.21-7.39,7.06-13.41,14.03-15.79,6.62-2.31,13.75-1.74,20.65-1.99,11.33-.69,22.7-.61,34.05-.92a6.855,6.855,0,0,1,6.47,3.06c1.09,6.64-1.55,13.05-2.3,19.58-.47,4.31-1.54,8.52-2.09,12.82,18.41-16.2,38.61-30.98,61.56-40.09M972.55,147.65c-9.54,3.47-17.61,10.1-24.36,17.56a112.349,112.349,0,0,0-21.43,38.63c-3.92,11.57-7.02,23.6-7.48,35.86,4.5.8,9.14.06,13.61-.7,18.53-2.6,34.97-14.88,44.24-30.93,6.88-11.53,12.13-24.21,14.26-37.52.69-6.81.71-14.54-3.83-20.13C983.97,145.98,977.54,145.74,972.55,147.65Z" fill="#21409a"></path>
            <path id="Path_13" data-name="Path 13" d="M766.54,117.57c10.69-2.02,21.87-2.51,32.45.4,14.1,3.63,28.09,10.1,37.71,21.36,12.74,14.23,16.57,34.1,16.64,52.66a199.967,199.967,0,0,1-8.05,52.06c-1.95,8.7-5.81,16.79-9.27,24.97-11.55,24.93-29.26,47.99-53.65,61.42-11.86,6.02-24.95,10.22-38.37,9.99-14.93.35-29.48-4.22-42.82-10.58-1.92-.93-3.69-2.28-5.82-2.64-2.63,18.27-5.05,36.59-7.92,54.83-.35,4.41-.15,9.11-2.35,13.12-2.84,5.4-7.73,10.1-13.84,11.38-3.95,1.41-8.18,1.41-12.3,1.73-15.19.93-30.43.06-45.58-.73-2.49-1.99-2.89-5.59-2.69-8.57,3.45-26.32,8.28-52.47,11.3-78.85-15.01,10.19-30.97,19.97-48.99,23.55-8.77,1.26-18.13,1.5-26.36-2.23-10.88-3.98-18.1-13.7-23.7-23.35-2.55,1.67-4.33,4.24-6.66,6.17-13.59,12.11-28.73,23.09-46.12,28.94-13.31,5.17-28.09,4.18-41.78,1.21-11.68-2.73-22.53-9.63-28.82-19.99-7.32-12.42-9.49-27.19-9.16-41.42-.35-17.6,3.73-34.84,6.35-52.14.75-8.37,2.8-16.55,3.91-24.87,2.12-15.49,5.35-30.82,7.12-46.35,2.71-11.92,2.18-24.78,8.07-35.8a22.49,22.49,0,0,1,19.06-12.68c18.34-1.23,36.72-1.76,55.1-1.88,2.8-.06,5.09,2.41,5.7,5.01,1.07,3.91-.06,7.93-.69,11.81-1.62,9.48-3.63,18.91-4.64,28.48-2.96,14.87-4.88,29.93-7.73,44.82-1.54,7.46-1.77,15.13-3.58,22.54-2.3,16.39-5.78,32.59-7.9,49.01-1.33,7.43-2.79,15.69,1.26,22.57,3.68,3.37,8.81.86,13.03.13,11.36-3.49,22.34-10.24,28.39-20.76,2.62-5.56,2.65-11.87,4.26-17.72,2.71-16.31,5.82-32.58,9.13-48.79,3.19-19.86,7.48-39.53,10.77-59.36,2.06-7.76,1.91-16.11,5.65-23.38a24.952,24.952,0,0,1,15.55-14.32c3.8-1.3,7.85-.93,11.8-1.07,12.67-.85,25.37-.89,38.07-.96,3.29-.34,6.03,2.36,7.37,5.11,1.69,6.56-1.04,13.08-1.77,19.57a190.592,190.592,0,0,0-3.18,18.85c-2.88,14.41-5.15,28.94-8,43.36-1.7,13.91-5.09,27.54-7.09,41.41-2.32,11.15-3.69,22.45-5.93,33.61-1.04,8.54-4.04,16.95-3.12,25.65.38,2.43,1.97,5.19,4.68,5.44,6.03-1.11,11.26-4.65,16.26-8.02,7.55-6.04,15.18-12.66,19.48-21.51,2.42-11.86,3.21-23.97,5.11-35.92,2.3-14.41,4.03-28.91,6.46-43.3,1.7-18.14,5.35-36.02,7.27-54.12,1.35-8.32,4.32-17.34,11.92-21.97,6.31-4.25,14.25-3.57,21.48-3.27,13.68-.44,27.39,0,41.06-.86a4.907,4.907,0,0,1,5.65,3.83c.75,6.36-1.35,12.56-1.72,18.87,3.25-2,5.23-5.49,8.27-7.8a81.845,81.845,0,0,1,33.27-18.65M756.41,156.6c-13.66,3.47-23.31,14.85-30.6,26.24-3.81,6.91-8.08,13.65-10.86,21.05-1.52,11.07-3.54,22.07-5.12,33.14-1.56,11.37-4.16,22.59-5.12,34.04-.78,6.2-2.67,12.34-2.54,18.61a40.245,40.245,0,0,0,24.85,10.66c8.74.27,16.99-3.44,24.1-8.23a83.406,83.406,0,0,0,21.54-24.49c7.68-11.86,12.1-25.45,15.7-39.01,1.76-12.11,3.86-24.38,2.46-36.65-.81-9.9-2.72-20.58-9.65-28.15A29.914,29.914,0,0,0,756.41,156.6Z" fill="#21409a"></path>
            <path id="Path_14" data-name="Path 14" d="M902.01,380.18c12-.63,24.02-.87,36.04-1.03a10.877,10.877,0,0,1,9.5,4.25c1.12,6.11-.71,12.24-1.83,18.22-2.35,14.41-5.38,28.71-7.27,43.19-3.3,16.73-5.82,33.6-8.99,50.36-1.71,13.68-4.79,27.16-6.83,40.8-.84,6.37-2.61,12.57-3.07,19-2.73,14.65-5.23,29.36-7.78,44.05-.96,7.84-3.43,15.64-2.22,23.6.68,2.48,2.58,5.35,5.51,5.14,7.91-.03,14.63-4.78,21.3-8.42,5.15-4.06,10.91-7.93,14.58-13.42-.57-4.69-2.41-9.14-2.81-13.86a166.629,166.629,0,0,1-.03-43.09c1.66-14.2,5.46-28.03,9.3-41.77,8.24-25.13,20.59-49.47,39.41-68.37a112.721,112.721,0,0,1,67.26-33.28c7.84-.48,15.75-1.56,23.58-.22,14.73.85,30.29,8.28,36.89,22.07.23.07.7.21.94.28.81-8.56,6.78-16.62,15.03-19.3,6.23-2.31,12.98-1.51,19.48-1.65,13.74.16,27.53-.55,41.23.86,3.69.5,7.59,2.26,9.24,5.81a16.017,16.017,0,0,1-.38,7.75c-1.24,3.52-1.21,7.32-2.02,10.94-5.03,24.02-9.02,48.21-13.82,72.27-2.78,12.2-4.2,24.65-6.98,36.85-1.92,9.39-3.34,18.88-5.59,28.2-1.59,13.61-5.91,27.14-4.04,40.97.78,3.66,2.01,7.52,4.79,10.18,5.49,4.28,14.4-.7,14.11-7.53-1.44-10.35-1.89-21.39,2.36-31.18,4.25-10.25,15.09-17.08,26.11-17.18,5.37-.04,11.18-.57,16.01,2.3,6.84,3.84,10.33,11.61,11.68,19.03,2.79,20.2-6.7,40.73-22.14,53.58-23.06,20.3-56.84,26.67-86.02,17.66-8.15-3.9-15.96-9.13-21.25-16.59-7.94-9.9-12.29-22.19-14.63-34.54-9.81,15.83-22.28,30.31-37.82,40.77-19.68,13.84-45.58,18.67-68.78,12-17.86-4.48-32.93-17.07-42.25-32.74-1.68.14-2.34,2.18-3.48,3.21-8.26,9.31-18.55,16.7-29.5,22.52a68.518,68.518,0,0,1-16.2,6.91A57,57,0,0,1,889,662.32c-17.93.91-36.56-7.7-46.24-23.07-8.36-12.3-10.86-27.68-10.38-42.3-.05-10.1,3.23-19.76,4.17-29.75,6.35-32.94,10.71-66.2,16.26-99.28,2.21-12.93,3.44-26.01,5.79-38.92.9-8.04,2.46-15.98,3.43-24.01,1.36-9.6,7.53-18.71,16.82-22.15,7.31-3.18,15.4-2.37,23.16-2.66m185.39,55.41c-11.7,2.86-20.63,11.83-27.56,21.23-13.24,18.16-20.64,39.7-26.81,61.1-3.99,19.07-8.84,38.46-7.05,58.12.79,8.05,3.21,16.26,8.34,22.65,6.36,7.17,16.4,9.91,25.72,9.38,10.14-.77,19.4-6.57,25.45-14.6A69.592,69.592,0,0,0,1098,565.83c2.67-12.48,4.92-25.05,7.36-37.58,3.49-20.59,8.19-40.97,11.44-61.6.65-4.23,2.08-8.33,2.36-12.61C1115.25,440.97,1100.6,432.95,1087.4,435.59Z" fill="#21409a"></path>
            <path id="Path_15" data-name="Path 15" d="M466.43,383.56c22.9-5.63,47.21-4.33,69.82,2.03,10.6,2.16,20.51,6.83,29.71,12.4a59.364,59.364,0,0,1,26.9,38.99,101.981,101.981,0,0,1-.08,31.63A61.5,61.5,0,0,1,574.4,502.4a54.226,54.226,0,0,1-48.27,13.5c-11.05-2.48-22.22-7.59-28.94-17.08-6.27-7.85-8.41-18.43-6.79-28.24.85-9.83,6.55-18.98,14.39-24.81,4.24-3.36,9.72-4.2,14.46-6.6,4.03-2.03,8.09-4.34,11.1-7.78a7.9,7.9,0,0,0,1.55-8.19c-2.75-7.16-10.45-11.4-17.87-11.68-5.66-.3-11.06,1.96-15.87,4.73-13.4,8.96-22.09,23.24-28.08,37.89-5.38,11.27-8.43,23.4-11.7,35.39a208.066,208.066,0,0,0-5.61,65.45,98.133,98.133,0,0,0,11.72,40.57c4.7,7.99,12.23,14.83,21.59,16.54,8.44,2.45,17.21.25,25.52-1.69,13.68-4.69,26.23-12.28,37.55-21.2,11.81-9.4,22.92-20.09,31.03-32.88,1.21-6.97,1.36-14.13,2.95-21.06,1.59-13.85,6.17-27.11,11-40.11a161.2,161.2,0,0,1,20.24-35.74,135.453,135.453,0,0,1,42.42-36.59c12.66-7.49,26.82-11.89,40.88-15.89A298.54,298.54,0,0,1,733,401.82c16.89-.92,34.08.6,50.17,6.01,15.47,5.46,29.79,15.69,37.71,30.32,4.83,8.06,7.33,17.2,9.52,26.25,5.03,22.51,5.11,45.96,1.64,68.71-2.81,15.85-6.6,31.68-13.49,46.3-11.01,25.85-29.82,48.93-54.69,62.48-11.37,6.85-24.25,10.37-36.87,14.1-5.52,1.74-11.31,2.19-16.98,3.21-20.05,3.64-40.75,2.54-60.57-1.92a136.157,136.157,0,0,1-24.35-9.47c-15.58-8.27-29.3-20.79-37.13-36.77-3.97-7.05-5.41-15.07-7.15-22.86-1.08.43-1.44,1.64-2.05,2.52-4.52,8.49-10.92,15.73-16.89,23.19-16.83,20.37-39.17,36.64-64.68,44.1A152.511,152.511,0,0,1,465.48,663H453.54c-5.86-.93-11.83-.91-17.67-2.01-5.73-1.12-11.44-2.39-17.11-3.77-16.36-5-31.86-13.8-43.25-26.72-12.25-13.15-19.67-30.08-23.75-47.41a176.338,176.338,0,0,1-1.51-63.06c1.39-13.72,5.66-26.89,10.01-39.9,14.71-38.61,44.67-71.43,82.48-88.4,7.48-3.84,15.69-5.77,23.69-8.17m279.97,50c-7.4,1.44-14.09,5.26-20.03,9.79-11.8,9.48-20.56,22.11-27.77,35.28a213.532,213.532,0,0,0-18.23,50.95c-3.92,14.78-4.16,30.21-3.64,45.39.55,11.39,3.88,23.11,11.42,31.9A25.684,25.684,0,0,0,708,614.8a50.774,50.774,0,0,0,30.43-10.41c11.35-8.72,19.27-21.18,24.84-34.21A119.6,119.6,0,0,0,771,549a244.423,244.423,0,0,0,8.61-82.97c-1.47-10.82-5.15-22.64-14.62-29.08C759.69,433.01,752.71,432.67,746.4,433.56Z" fill="#21409a"></path>
        </g>
    </g>
</svg>